<svg width="26" height="24" viewBox="0 0 26 24" fill="none" xmlns="http://www.w3.org/2000/svg">
<path d="M17.2316 22.5766L20.0246 19.8279L21.4903 20.6979L24.8944 16.1946M22.6818 16.0969L25.2201 16.209M25.1302 18.4813L24.737 15.729" stroke="#7ACB22" stroke-width="1.06906"/>
<path d="M4.8548 15.2474C3.74843 15.2474 2.82762 14.9113 2.09237 14.2391C1.36412 13.5599 1 12.6881 1 11.6237C1 10.5524 1.36412 9.68057 2.09237 9.00834C2.82061 8.33611 3.74142 8 4.8548 8C5.69508 8 6.37081 8.19607 6.88198 8.5882C7.40016 8.98033 7.78529 9.46349 8.03737 10.0377L6.20976 10.8885C6.11873 10.6084 5.94717 10.3703 5.69508 10.1742C5.443 9.97117 5.1629 9.86963 4.8548 9.86963C4.35063 9.86963 3.94099 10.0377 3.62589 10.3738C3.31078 10.7099 3.15323 11.1266 3.15323 11.6237C3.15323 12.1209 3.31078 12.5375 3.62589 12.8736C3.94099 13.2098 4.35063 13.3778 4.8548 13.3778C5.1629 13.3778 5.443 13.2798 5.69508 13.0837C5.94717 12.8806 6.11873 12.6391 6.20976 12.359L8.03737 13.1993C7.92534 13.4583 7.78529 13.6999 7.61723 13.924C7.44918 14.1411 7.2391 14.3546 6.98702 14.5647C6.73493 14.7748 6.42333 14.9428 6.0522 15.0689C5.68808 15.1879 5.28895 15.2474 4.8548 15.2474Z" fill="#84D52C"/>
<path d="M4.8548 15.2474C3.74843 15.2474 2.82762 14.9113 2.09237 14.2391C1.36412 13.5599 1 12.6881 1 11.6237C1 10.5524 1.36412 9.68057 2.09237 9.00834C2.82061 8.33611 3.74142 8 4.8548 8C5.69508 8 6.37081 8.19607 6.88198 8.5882C7.40016 8.98033 7.78529 9.46349 8.03737 10.0377L6.20976 10.8885C6.11873 10.6084 5.94717 10.3703 5.69508 10.1742C5.443 9.97117 5.1629 9.86963 4.8548 9.86963C4.35063 9.86963 3.94099 10.0377 3.62589 10.3738C3.31078 10.7099 3.15323 11.1266 3.15323 11.6237C3.15323 12.1209 3.31078 12.5375 3.62589 12.8736C3.94099 13.2098 4.35063 13.3778 4.8548 13.3778C5.1629 13.3778 5.443 13.2798 5.69508 13.0837C5.94717 12.8806 6.11873 12.6391 6.20976 12.359L8.03737 13.1993C7.92534 13.4583 7.78529 13.6999 7.61723 13.924C7.44918 14.1411 7.2391 14.3546 6.98702 14.5647C6.73493 14.7748 6.42333 14.9428 6.0522 15.0689C5.68808 15.1879 5.28895 15.2474 4.8548 15.2474Z" fill="url(#paint0_linear_107_1328)" fill-opacity="0.2"/>
<path d="M13.1029 15.1214H8.70189V8.11554H12.9558C13.628 8.11554 14.1427 8.2976 14.4998 8.66172C14.857 9.02585 15.0355 9.43899 15.0355 9.90114C15.0355 10.3283 14.9235 10.6854 14.6994 10.9725C14.4753 11.2526 14.1882 11.4312 13.8381 11.5082C14.2233 11.5642 14.5419 11.7533 14.7939 12.0754C15.046 12.3905 15.1721 12.7721 15.1721 13.2203C15.1721 13.7454 14.9935 14.1936 14.6364 14.5647C14.2793 14.9358 13.7681 15.1214 13.1029 15.1214ZM12.4622 10.6994C12.5742 10.6994 12.6722 10.6609 12.7563 10.5839C12.8403 10.4998 12.8823 10.3983 12.8823 10.2793C12.8823 10.1602 12.8403 10.0657 12.7563 9.99567C12.6722 9.91865 12.5742 9.88013 12.4622 9.88013H10.8236V10.6994H12.4622ZM12.5252 13.3568C12.6792 13.3568 12.7983 13.3183 12.8823 13.2413C12.9733 13.1572 13.0188 13.0487 13.0188 12.9157C13.0188 12.7896 12.9733 12.6846 12.8823 12.6006C12.7913 12.5095 12.6722 12.464 12.5252 12.464H10.8236V13.3568H12.5252Z" fill="#84D52C"/>
<path d="M13.1029 15.1214H8.70189V8.11554H12.9558C13.628 8.11554 14.1427 8.2976 14.4998 8.66172C14.857 9.02585 15.0355 9.43899 15.0355 9.90114C15.0355 10.3283 14.9235 10.6854 14.6994 10.9725C14.4753 11.2526 14.1882 11.4312 13.8381 11.5082C14.2233 11.5642 14.5419 11.7533 14.7939 12.0754C15.046 12.3905 15.1721 12.7721 15.1721 13.2203C15.1721 13.7454 14.9935 14.1936 14.6364 14.5647C14.2793 14.9358 13.7681 15.1214 13.1029 15.1214ZM12.4622 10.6994C12.5742 10.6994 12.6722 10.6609 12.7563 10.5839C12.8403 10.4998 12.8823 10.3983 12.8823 10.2793C12.8823 10.1602 12.8403 10.0657 12.7563 9.99567C12.6722 9.91865 12.5742 9.88013 12.4622 9.88013H10.8236V10.6994H12.4622ZM12.5252 13.3568C12.6792 13.3568 12.7983 13.3183 12.8823 13.2413C12.9733 13.1572 13.0188 13.0487 13.0188 12.9157C13.0188 12.7896 12.9733 12.6846 12.8823 12.6006C12.7913 12.5095 12.6722 12.464 12.5252 12.464H10.8236V13.3568H12.5252Z" fill="url(#paint1_linear_107_1328)" fill-opacity="0.2"/>
<path d="M19.1662 15.1214H16.0256V8.11554H19.1557C20.2901 8.11554 21.2144 8.42714 21.9286 9.05035C22.6429 9.66656 23 10.5209 23 11.6132C23 12.7056 22.6429 13.5634 21.9286 14.1866C21.2144 14.8098 20.2936 15.1214 19.1662 15.1214ZM19.1557 13.2728C19.6669 13.2728 20.0765 13.1117 20.3846 12.7896C20.6927 12.4675 20.8468 12.0754 20.8468 11.6132C20.8468 11.1161 20.7032 10.7169 20.4161 10.4158C20.129 10.1147 19.7124 9.96416 19.1662 9.96416H18.1474V13.2728H19.1557Z" fill="#84D52C"/>
<path d="M19.1662 15.1214H16.0256V8.11554H19.1557C20.2901 8.11554 21.2144 8.42714 21.9286 9.05035C22.6429 9.66656 23 10.5209 23 11.6132C23 12.7056 22.6429 13.5634 21.9286 14.1866C21.2144 14.8098 20.2936 15.1214 19.1662 15.1214ZM19.1557 13.2728C19.6669 13.2728 20.0765 13.1117 20.3846 12.7896C20.6927 12.4675 20.8468 12.0754 20.8468 11.6132C20.8468 11.1161 20.7032 10.7169 20.4161 10.4158C20.129 10.1147 19.7124 9.96416 19.1662 9.96416H18.1474V13.2728H19.1557Z" fill="url(#paint2_linear_107_1328)" fill-opacity="0.2"/>
<defs>
<linearGradient id="paint0_linear_107_1328" x1="23" y1="8" x2="1.7467" y2="11.8832" gradientUnits="userSpaceOnUse">
<stop stop-color="#6BAB2B"/>
<stop offset="1" stop-color="#84D52C" stop-opacity="0"/>
</linearGradient>
<linearGradient id="paint1_linear_107_1328" x1="23" y1="8" x2="1.7467" y2="11.8832" gradientUnits="userSpaceOnUse">
<stop stop-color="#6BAB2B"/>
<stop offset="1" stop-color="#84D52C" stop-opacity="0"/>
</linearGradient>
<linearGradient id="paint2_linear_107_1328" x1="23" y1="8" x2="1.7467" y2="11.8832" gradientUnits="userSpaceOnUse">
<stop stop-color="#6BAB2B"/>
<stop offset="1" stop-color="#84D52C" stop-opacity="0"/>
</linearGradient>
</defs>
</svg>
