<svg width="26" height="24" viewBox="0 0 26 24" fill="none" xmlns="http://www.w3.org/2000/svg">
<path d="M17.1333 22.5766L19.9107 19.8279L21.3682 20.6979L24.7533 16.1946M22.5531 16.0969L25.0772 16.2089M24.9878 18.4813L24.5968 15.729" stroke="#7ACB22" stroke-width="1.06906"/>
<path d="M5.26689 16.1966H3.00465V10.2607H1V8.13298H7.26034V10.2607H5.26689V16.1966Z" fill="#84D52C"/>
<path d="M5.26689 16.1966H3.00465V10.2607H1V8.13298H7.26034V10.2607H5.26689V16.1966Z" fill="url(#paint0_linear_107_1325)" fill-opacity="0.2"/>
<path d="M15.2647 16.1966H13.0025V13.1138H10.3259V16.1966H8.06362V8.13298H10.3259V10.9861H13.0025V8.13298H15.2647V16.1966Z" fill="#84D52C"/>
<path d="M15.2647 16.1966H13.0025V13.1138H10.3259V16.1966H8.06362V8.13298H10.3259V10.9861H13.0025V8.13298H15.2647V16.1966Z" fill="url(#paint1_linear_107_1325)" fill-opacity="0.2"/>
<path d="M20.1809 16.3417C19.0012 16.3417 18.0194 15.9548 17.2355 15.1811C16.459 14.3993 16.0708 13.3959 16.0708 12.1708C16.0708 10.9377 16.459 9.9343 17.2355 9.16058C18.012 8.38686 18.9938 8 20.1809 8C21.0768 8 21.7973 8.22567 22.3423 8.677C22.8948 9.12834 23.3054 9.68445 23.5742 10.3453L21.6256 11.3246C21.5285 11.0022 21.3456 10.7282 21.0768 10.5025C20.808 10.2688 20.5094 10.1519 20.1809 10.1519C19.6433 10.1519 19.2065 10.3453 18.8706 10.7322C18.5346 11.1191 18.3666 11.5986 18.3666 12.1708C18.3666 12.7431 18.5346 13.2226 18.8706 13.6095C19.2065 13.9963 19.6433 14.1898 20.1809 14.1898C20.5094 14.1898 20.808 14.0769 21.0768 13.8512C21.3456 13.6175 21.5285 13.3395 21.6256 13.0171L23.5742 13.9842C23.4548 14.2824 23.3054 14.5605 23.1263 14.8184C22.9471 15.0682 22.7231 15.3141 22.4543 15.5558C22.1855 15.7976 21.8533 15.9911 21.4576 16.1361C21.0693 16.2732 20.6438 16.3417 20.1809 16.3417Z" fill="#84D52C"/>
<path d="M20.1809 16.3417C19.0012 16.3417 18.0194 15.9548 17.2355 15.1811C16.459 14.3993 16.0708 13.3959 16.0708 12.1708C16.0708 10.9377 16.459 9.9343 17.2355 9.16058C18.012 8.38686 18.9938 8 20.1809 8C21.0768 8 21.7973 8.22567 22.3423 8.677C22.8948 9.12834 23.3054 9.68445 23.5742 10.3453L21.6256 11.3246C21.5285 11.0022 21.3456 10.7282 21.0768 10.5025C20.808 10.2688 20.5094 10.1519 20.1809 10.1519C19.6433 10.1519 19.2065 10.3453 18.8706 10.7322C18.5346 11.1191 18.3666 11.5986 18.3666 12.1708C18.3666 12.7431 18.5346 13.2226 18.8706 13.6095C19.2065 13.9963 19.6433 14.1898 20.1809 14.1898C20.5094 14.1898 20.808 14.0769 21.0768 13.8512C21.3456 13.6175 21.5285 13.3395 21.6256 13.0171L23.5742 13.9842C23.4548 14.2824 23.3054 14.5605 23.1263 14.8184C22.9471 15.0682 22.7231 15.3141 22.4543 15.5558C22.1855 15.7976 21.8533 15.9911 21.4576 16.1361C21.0693 16.2732 20.6438 16.3417 20.1809 16.3417Z" fill="url(#paint2_linear_107_1325)" fill-opacity="0.2"/>
<defs>
<linearGradient id="paint0_linear_107_1325" x1="23.5742" y1="8" x2="1.62065" y2="11.5759" gradientUnits="userSpaceOnUse">
<stop stop-color="#6BAB2B"/>
<stop offset="1" stop-color="#84D52C" stop-opacity="0"/>
</linearGradient>
<linearGradient id="paint1_linear_107_1325" x1="23.5742" y1="8" x2="1.62065" y2="11.5759" gradientUnits="userSpaceOnUse">
<stop stop-color="#6BAB2B"/>
<stop offset="1" stop-color="#84D52C" stop-opacity="0"/>
</linearGradient>
<linearGradient id="paint2_linear_107_1325" x1="23.5742" y1="8" x2="1.62065" y2="11.5759" gradientUnits="userSpaceOnUse">
<stop stop-color="#6BAB2B"/>
<stop offset="1" stop-color="#84D52C" stop-opacity="0"/>
</linearGradient>
</defs>
</svg>
