<svg width="28" height="24" viewBox="0 0 28 24" fill="none" xmlns="http://www.w3.org/2000/svg">
<path d="M4.53638 16.1966H2.13127V10.2607H0V8.13298H6.65574V10.2607H4.53638V16.1966Z" fill="#84D52C"/>
<path d="M4.53638 16.1966H2.13127V10.2607H0V8.13298H6.65574V10.2607H4.53638V16.1966Z" fill="url(#paint0_linear_107_1327)" fill-opacity="0.2"/>
<path d="M15.1656 16.1966H12.7605V13.1138H9.91487V16.1966H7.50976V8.13298H9.91487V10.9861H12.7605V8.13298H15.1656V16.1966Z" fill="#84D52C"/>
<path d="M15.1656 16.1966H12.7605V13.1138H9.91487V16.1966H7.50976V8.13298H9.91487V10.9861H12.7605V8.13298H15.1656V16.1966Z" fill="url(#paint1_linear_107_1327)" fill-opacity="0.2"/>
<path d="M20.3923 16.3417C19.1382 16.3417 18.0944 15.9548 17.2609 15.1811C16.4354 14.3993 16.0226 13.3959 16.0226 12.1708C16.0226 10.9377 16.4354 9.9343 17.2609 9.16058C18.0864 8.38686 19.1302 8 20.3923 8C21.3448 8 22.1108 8.22567 22.6903 8.677C23.2777 9.12834 23.7142 9.68445 24 10.3453L21.9283 11.3246C21.8251 11.0022 21.6306 10.7282 21.3448 10.5025C21.0591 10.2688 20.7416 10.1519 20.3923 10.1519C19.8208 10.1519 19.3565 10.3453 18.9993 10.7322C18.6421 11.1191 18.4635 11.5986 18.4635 12.1708C18.4635 12.7431 18.6421 13.2226 18.9993 13.6095C19.3565 13.9963 19.8208 14.1898 20.3923 14.1898C20.7416 14.1898 21.0591 14.0769 21.3448 13.8512C21.6306 13.6175 21.8251 13.3395 21.9283 13.0171L24 13.9842C23.873 14.2824 23.7142 14.5605 23.5237 14.8184C23.3332 15.0682 23.0951 15.3141 22.8093 15.5558C22.5236 15.7976 22.1704 15.9911 21.7497 16.1361C21.3369 16.2732 20.8845 16.3417 20.3923 16.3417Z" fill="#84D52C"/>
<path d="M20.3923 16.3417C19.1382 16.3417 18.0944 15.9548 17.2609 15.1811C16.4354 14.3993 16.0226 13.3959 16.0226 12.1708C16.0226 10.9377 16.4354 9.9343 17.2609 9.16058C18.0864 8.38686 19.1302 8 20.3923 8C21.3448 8 22.1108 8.22567 22.6903 8.677C23.2777 9.12834 23.7142 9.68445 24 10.3453L21.9283 11.3246C21.8251 11.0022 21.6306 10.7282 21.3448 10.5025C21.0591 10.2688 20.7416 10.1519 20.3923 10.1519C19.8208 10.1519 19.3565 10.3453 18.9993 10.7322C18.6421 11.1191 18.4635 11.5986 18.4635 12.1708C18.4635 12.7431 18.6421 13.2226 18.9993 13.6095C19.3565 13.9963 19.8208 14.1898 20.3923 14.1898C20.7416 14.1898 21.0591 14.0769 21.3448 13.8512C21.6306 13.6175 21.8251 13.3395 21.9283 13.0171L24 13.9842C23.873 14.2824 23.7142 14.5605 23.5237 14.8184C23.3332 15.0682 23.0951 15.3141 22.8093 15.5558C22.5236 15.7976 22.1704 15.9911 21.7497 16.1361C21.3369 16.2732 20.8845 16.3417 20.3923 16.3417Z" fill="url(#paint2_linear_107_1327)" fill-opacity="0.2"/>
<path d="M20.5967 15L23.1525 17.5702L22.2967 18.881L26.5075 22.0325M26.6445 20.0338L26.4873 22.3267M24.33 22.2081L26.953 21.8979" stroke="#FF6D59" stroke-width="1.06906"/>
<defs>
<linearGradient id="paint0_linear_107_1327" x1="24" y1="8" x2="0.738195" y2="12.0283" gradientUnits="userSpaceOnUse">
<stop stop-color="#6BAB2B"/>
<stop offset="1" stop-color="#84D52C" stop-opacity="0"/>
</linearGradient>
<linearGradient id="paint1_linear_107_1327" x1="24" y1="8" x2="0.738195" y2="12.0283" gradientUnits="userSpaceOnUse">
<stop stop-color="#6BAB2B"/>
<stop offset="1" stop-color="#84D52C" stop-opacity="0"/>
</linearGradient>
<linearGradient id="paint2_linear_107_1327" x1="24" y1="8" x2="0.738195" y2="12.0283" gradientUnits="userSpaceOnUse">
<stop stop-color="#6BAB2B"/>
<stop offset="1" stop-color="#84D52C" stop-opacity="0"/>
</linearGradient>
</defs>
</svg>
