<?xml version="1.0" encoding="utf-8"?><svg viewBox="0 0 28 25" xmlns="http://www.w3.org/2000/svg" xmlns:xlink="http://www.w3.org/1999/xlink"><style>:root>svg{display:none}:root>svg:target{display:block}</style><svg fill="none" viewBox="0 0 24 24" id="arrow-down" xmlns="http://www.w3.org/2000/svg"><path d="M13 4v12.175l5.6-5.6L20 12l-8 8-8-8 1.4-1.425 5.6 5.6V4h2z" fill="#84D52C"/><path d="M13 4v12.175l5.6-5.6L20 12l-8 8-8-8 1.4-1.425 5.6 5.6V4h2z" fill="url(#apaint0_linear_1_717)" fill-opacity=".2"/><defs><linearGradient id="apaint0_linear_1_717" x1="4" y1="20" x2="19.915" y2="19.042" gradientUnits="userSpaceOnUse"><stop stop-color="#6BAB2B"/><stop offset="1" stop-color="#84D52C" stop-opacity="0"/></linearGradient></defs></svg><svg fill="none" viewBox="0 0 24 24" id="arrow-up" xmlns="http://www.w3.org/2000/svg"><path d="M11 20V7.825l-5.6 5.6L4 12l8-8 8 8-1.4 1.425-5.6-5.6V20h-2z" fill="#84D52C"/><path d="M11 20V7.825l-5.6 5.6L4 12l8-8 8 8-1.4 1.425-5.6-5.6V20h-2z" fill="url(#bpaint0_linear_1_714)" fill-opacity=".2"/><defs><linearGradient id="bpaint0_linear_1_714" x1="20" y1="4" x2="4.085" y2="4.958" gradientUnits="userSpaceOnUse"><stop stop-color="#6BAB2B"/><stop offset="1" stop-color="#84D52C" stop-opacity="0"/></linearGradient></defs></svg><svg fill="none" viewBox="0 0 24 24" id="calendar" xmlns="http://www.w3.org/2000/svg"><g clip-path="url(#cclip0_1_708)"><path d="M5.25.5a.25.25 0 01.25.25V2h13V.75a.25.25 0 11.5 0V2h2a2.5 2.5 0 012.5 2.5V21a2.5 2.5 0 01-2.5 2.5H3A2.5 2.5 0 01.5 21V4.5A2.5 2.5 0 013 2h2V.75A.25.25 0 015.25.5zM3 2.5a2 2 0 00-2 2V21a2 2 0 002 2h18a2 2 0 002-2V4.5a2 2 0 00-2-2H3z" stroke="#84D52C"/><path d="M5.25.5a.25.25 0 01.25.25V2h13V.75a.25.25 0 11.5 0V2h2a2.5 2.5 0 012.5 2.5V21a2.5 2.5 0 01-2.5 2.5H3A2.5 2.5 0 01.5 21V4.5A2.5 2.5 0 013 2h2V.75A.25.25 0 015.25.5zM3 2.5a2 2 0 00-2 2V21a2 2 0 002 2h18a2 2 0 002-2V4.5a2 2 0 00-2-2H3z" stroke="url(#cpaint0_linear_1_708)" stroke-opacity=".2"/><path d="M3.75 6a.75.75 0 01.75-.75h15a.75.75 0 01.75.75v1.5a.75.75 0 01-.75.75h-15a.75.75 0 01-.75-.75V6zm12.75 5.25a.75.75 0 01.75-.75h1.5a.75.75 0 01.75.75v1.5a.75.75 0 01-.75.75h-1.5a.75.75 0 01-.75-.75v-1.5zm-4.5 0a.75.75 0 01.75-.75h1.5a.75.75 0 01.75.75v1.5a.75.75 0 01-.75.75h-1.5a.75.75 0 01-.75-.75v-1.5zm-7.5 4.5a.75.75 0 01.75-.75h1.5a.75.75 0 01.75.75v1.5a.75.75 0 01-.75.75h-1.5a.75.75 0 01-.75-.75v-1.5zm4.5 0a.75.75 0 01.75-.75h1.5a.75.75 0 01.75.75v1.5a.75.75 0 01-.75.75h-1.5a.75.75 0 01-.75-.75v-1.5z" fill="#84D52C"/><path d="M3.75 6a.75.75 0 01.75-.75h15a.75.75 0 01.75.75v1.5a.75.75 0 01-.75.75h-15a.75.75 0 01-.75-.75V6zm12.75 5.25a.75.75 0 01.75-.75h1.5a.75.75 0 01.75.75v1.5a.75.75 0 01-.75.75h-1.5a.75.75 0 01-.75-.75v-1.5zm-4.5 0a.75.75 0 01.75-.75h1.5a.75.75 0 01.75.75v1.5a.75.75 0 01-.75.75h-1.5a.75.75 0 01-.75-.75v-1.5zm-7.5 4.5a.75.75 0 01.75-.75h1.5a.75.75 0 01.75.75v1.5a.75.75 0 01-.75.75h-1.5a.75.75 0 01-.75-.75v-1.5zm4.5 0a.75.75 0 01.75-.75h1.5a.75.75 0 01.75.75v1.5a.75.75 0 01-.75.75h-1.5a.75.75 0 01-.75-.75v-1.5z" fill="url(#cpaint1_linear_1_708)" fill-opacity=".2"/></g><defs><linearGradient id="cpaint0_linear_1_708" x1="24" y1="0" x2=".127" y2="1.437" gradientUnits="userSpaceOnUse"><stop stop-color="#6BAB2B"/><stop offset="1" stop-color="#84D52C" stop-opacity="0"/></linearGradient><linearGradient id="cpaint1_linear_1_708" x1="20.25" y1="5.25" x2="3.877" y2="6.525" gradientUnits="userSpaceOnUse"><stop stop-color="#6BAB2B"/><stop offset="1" stop-color="#84D52C" stop-opacity="0"/></linearGradient><clipPath id="cclip0_1_708"><path fill="#fff" d="M0 0h24v24H0z"/></clipPath></defs></svg><svg fill="none" viewBox="0 0 26 24" id="cbd-high" xmlns="http://www.w3.org/2000/svg"><path d="M17.232 22.577l2.793-2.75 1.465.87 3.404-4.502m-2.212-.098l2.538.112m-.09 2.272l-.393-2.752" stroke="#7ACB22" stroke-width="1.069"/><path d="M4.855 15.247c-1.107 0-2.027-.336-2.763-1.008C1.364 13.56 1 12.69 1 11.624c0-1.072.364-1.943 1.092-2.616C2.821 8.336 3.742 8 4.855 8c.84 0 1.516.196 2.027.588.518.392.903.875 1.155 1.45l-1.827.85a1.47 1.47 0 00-.515-.714 1.307 1.307 0 00-.84-.304c-.504 0-.914.168-1.23.504-.314.336-.472.753-.472 1.25s.158.913.473 1.25c.315.336.725.504 1.229.504.308 0 .588-.098.84-.294a1.53 1.53 0 00.515-.725l1.827.84c-.112.26-.252.5-.42.725-.168.217-.378.43-.63.64-.252.21-.564.379-.935.505a3.836 3.836 0 01-1.197.178z" fill="#84D52C"/><path d="M4.855 15.247c-1.107 0-2.027-.336-2.763-1.008C1.364 13.56 1 12.69 1 11.624c0-1.072.364-1.943 1.092-2.616C2.821 8.336 3.742 8 4.855 8c.84 0 1.516.196 2.027.588.518.392.903.875 1.155 1.45l-1.827.85a1.47 1.47 0 00-.515-.714 1.307 1.307 0 00-.84-.304c-.504 0-.914.168-1.23.504-.314.336-.472.753-.472 1.25s.158.913.473 1.25c.315.336.725.504 1.229.504.308 0 .588-.098.84-.294a1.53 1.53 0 00.515-.725l1.827.84c-.112.26-.252.5-.42.725-.168.217-.378.43-.63.64-.252.21-.564.379-.935.505a3.836 3.836 0 01-1.197.178z" fill="url(#dpaint0_linear_107_1328)" fill-opacity=".2"/><path d="M13.103 15.121H8.702V8.116h4.254c.672 0 1.187.182 1.544.546.357.364.536.777.536 1.24 0 .426-.112.783-.337 1.07a1.48 1.48 0 01-.86.536c.384.056.703.245.955.567.252.316.378.697.378 1.145 0 .525-.179.974-.536 1.345-.357.37-.868.556-1.533.556zm-.64-4.422c.111 0 .21-.038.293-.115a.415.415 0 00.126-.305.35.35 0 00-.126-.283.422.422 0 00-.294-.116h-1.638v.82h1.638zm.062 2.658c.154 0 .273-.039.357-.116a.423.423 0 00.137-.325.41.41 0 00-.137-.315.483.483 0 00-.357-.137h-1.701v.893h1.701z" fill="#84D52C"/><path d="M13.103 15.121H8.702V8.116h4.254c.672 0 1.187.182 1.544.546.357.364.536.777.536 1.24 0 .426-.112.783-.337 1.07a1.48 1.48 0 01-.86.536c.384.056.703.245.955.567.252.316.378.697.378 1.145 0 .525-.179.974-.536 1.345-.357.37-.868.556-1.533.556zm-.64-4.422c.111 0 .21-.038.293-.115a.415.415 0 00.126-.305.35.35 0 00-.126-.283.422.422 0 00-.294-.116h-1.638v.82h1.638zm.062 2.658c.154 0 .273-.039.357-.116a.423.423 0 00.137-.325.41.41 0 00-.137-.315.483.483 0 00-.357-.137h-1.701v.893h1.701z" fill="url(#dpaint1_linear_107_1328)" fill-opacity=".2"/><path d="M19.166 15.121h-3.14V8.116h3.13c1.134 0 2.058.311 2.773.934.714.617 1.071 1.47 1.071 2.563 0 1.093-.357 1.95-1.071 2.574-.715.623-1.635.934-2.763.934zm-.01-1.848c.51 0 .92-.161 1.229-.483.308-.322.462-.715.462-1.177 0-.497-.144-.896-.43-1.197-.288-.301-.705-.452-1.25-.452h-1.02v3.309h1.009z" fill="#84D52C"/><path d="M19.166 15.121h-3.14V8.116h3.13c1.134 0 2.058.311 2.773.934.714.617 1.071 1.47 1.071 2.563 0 1.093-.357 1.95-1.071 2.574-.715.623-1.635.934-2.763.934zm-.01-1.848c.51 0 .92-.161 1.229-.483.308-.322.462-.715.462-1.177 0-.497-.144-.896-.43-1.197-.288-.301-.705-.452-1.25-.452h-1.02v3.309h1.009z" fill="url(#dpaint2_linear_107_1328)" fill-opacity=".2"/><defs><linearGradient id="dpaint0_linear_107_1328" x1="23" y1="8" x2="1.747" y2="11.883" gradientUnits="userSpaceOnUse"><stop stop-color="#6BAB2B"/><stop offset="1" stop-color="#84D52C" stop-opacity="0"/></linearGradient><linearGradient id="dpaint1_linear_107_1328" x1="23" y1="8" x2="1.747" y2="11.883" gradientUnits="userSpaceOnUse"><stop stop-color="#6BAB2B"/><stop offset="1" stop-color="#84D52C" stop-opacity="0"/></linearGradient><linearGradient id="dpaint2_linear_107_1328" x1="23" y1="8" x2="1.747" y2="11.883" gradientUnits="userSpaceOnUse"><stop stop-color="#6BAB2B"/><stop offset="1" stop-color="#84D52C" stop-opacity="0"/></linearGradient></defs></svg><svg fill="none" viewBox="0 0 27 24" id="cbd-low" xmlns="http://www.w3.org/2000/svg"><path d="M19.978 15.126l2.424 2.804-.812 1.43 3.994 3.438m.13-2.18l-.15 2.5m-2.045-.129l2.487-.338" stroke="#FF6D59" stroke-width="1.069"/><path d="M4.855 15.247c-1.107 0-2.027-.336-2.763-1.008C1.364 13.56 1 12.69 1 11.624c0-1.072.364-1.943 1.092-2.616C2.821 8.336 3.742 8 4.855 8c.84 0 1.516.196 2.027.588.518.392.903.875 1.155 1.45l-1.827.85a1.47 1.47 0 00-.515-.714 1.307 1.307 0 00-.84-.304c-.504 0-.914.168-1.23.504-.314.336-.472.753-.472 1.25s.158.913.473 1.25c.315.336.725.504 1.229.504.308 0 .588-.098.84-.294a1.53 1.53 0 00.515-.725l1.827.84c-.112.26-.252.5-.42.725-.168.217-.378.43-.63.64-.252.21-.564.379-.935.505a3.836 3.836 0 01-1.197.178z" fill="#84D52C"/><path d="M4.855 15.247c-1.107 0-2.027-.336-2.763-1.008C1.364 13.56 1 12.69 1 11.624c0-1.072.364-1.943 1.092-2.616C2.821 8.336 3.742 8 4.855 8c.84 0 1.516.196 2.027.588.518.392.903.875 1.155 1.45l-1.827.85a1.47 1.47 0 00-.515-.714 1.307 1.307 0 00-.84-.304c-.504 0-.914.168-1.23.504-.314.336-.472.753-.472 1.25s.158.913.473 1.25c.315.336.725.504 1.229.504.308 0 .588-.098.84-.294a1.53 1.53 0 00.515-.725l1.827.84c-.112.26-.252.5-.42.725-.168.217-.378.43-.63.64-.252.21-.564.379-.935.505a3.836 3.836 0 01-1.197.178z" fill="url(#epaint0_linear_107_1329)" fill-opacity=".2"/><path d="M13.103 15.121H8.702V8.116h4.254c.672 0 1.187.182 1.544.546.357.364.536.777.536 1.24 0 .426-.112.783-.337 1.07a1.48 1.48 0 01-.86.536c.384.056.703.245.955.567.252.316.378.697.378 1.145 0 .525-.179.974-.536 1.345-.357.37-.868.556-1.533.556zm-.64-4.422c.111 0 .21-.038.293-.115a.415.415 0 00.126-.305.35.35 0 00-.126-.283.422.422 0 00-.294-.116h-1.638v.82h1.638zm.062 2.658c.154 0 .273-.039.357-.116a.423.423 0 00.137-.325.41.41 0 00-.137-.315.483.483 0 00-.357-.137h-1.701v.893h1.701z" fill="#84D52C"/><path d="M13.103 15.121H8.702V8.116h4.254c.672 0 1.187.182 1.544.546.357.364.536.777.536 1.24 0 .426-.112.783-.337 1.07a1.48 1.48 0 01-.86.536c.384.056.703.245.955.567.252.316.378.697.378 1.145 0 .525-.179.974-.536 1.345-.357.37-.868.556-1.533.556zm-.64-4.422c.111 0 .21-.038.293-.115a.415.415 0 00.126-.305.35.35 0 00-.126-.283.422.422 0 00-.294-.116h-1.638v.82h1.638zm.062 2.658c.154 0 .273-.039.357-.116a.423.423 0 00.137-.325.41.41 0 00-.137-.315.483.483 0 00-.357-.137h-1.701v.893h1.701z" fill="url(#epaint1_linear_107_1329)" fill-opacity=".2"/><path d="M19.166 15.121h-3.14V8.116h3.13c1.134 0 2.058.311 2.773.934.714.617 1.071 1.47 1.071 2.563 0 1.093-.357 1.95-1.071 2.574-.715.623-1.635.934-2.763.934zm-.01-1.848c.51 0 .92-.161 1.229-.483.308-.322.462-.715.462-1.177 0-.497-.144-.896-.43-1.197-.288-.301-.705-.452-1.25-.452h-1.02v3.309h1.009z" fill="#84D52C"/><path d="M19.166 15.121h-3.14V8.116h3.13c1.134 0 2.058.311 2.773.934.714.617 1.071 1.47 1.071 2.563 0 1.093-.357 1.95-1.071 2.574-.715.623-1.635.934-2.763.934zm-.01-1.848c.51 0 .92-.161 1.229-.483.308-.322.462-.715.462-1.177 0-.497-.144-.896-.43-1.197-.288-.301-.705-.452-1.25-.452h-1.02v3.309h1.009z" fill="url(#epaint2_linear_107_1329)" fill-opacity=".2"/><defs><linearGradient id="epaint0_linear_107_1329" x1="23" y1="8" x2="1.747" y2="11.883" gradientUnits="userSpaceOnUse"><stop stop-color="#6BAB2B"/><stop offset="1" stop-color="#84D52C" stop-opacity="0"/></linearGradient><linearGradient id="epaint1_linear_107_1329" x1="23" y1="8" x2="1.747" y2="11.883" gradientUnits="userSpaceOnUse"><stop stop-color="#6BAB2B"/><stop offset="1" stop-color="#84D52C" stop-opacity="0"/></linearGradient><linearGradient id="epaint2_linear_107_1329" x1="23" y1="8" x2="1.747" y2="11.883" gradientUnits="userSpaceOnUse"><stop stop-color="#6BAB2B"/><stop offset="1" stop-color="#84D52C" stop-opacity="0"/></linearGradient></defs></svg><svg fill="none" viewBox="0 0 26 25" id="filter" xmlns="http://www.w3.org/2000/svg"><path fill-rule="evenodd" clip-rule="evenodd" d="M10.019 3.726h13.858a1 1 0 110 2H9.98c-.358 1.527-1.447 2.637-2.734 2.637S4.87 7.253 4.513 5.726h-2.39a1 1 0 010-2h2.35C4.784 2.106 5.908.905 7.246.905c1.339 0 2.462 1.2 2.773 2.821zM2.122 12.25a1 1 0 100 2h11.524c.46 1.26 1.443 2.13 2.583 2.13 1.14 0 2.125-.87 2.584-2.13h5.064a1 1 0 100-2h-4.806c-.154-1.87-1.367-3.328-2.842-3.328-1.474 0-2.688 1.457-2.841 3.328H2.122zM.94 21.175a1 1 0 011-1h7.453c.335-1.573 1.441-2.729 2.754-2.729s2.42 1.155 2.754 2.73h9.161a1 1 0 010 2h-9.16c-.336 1.574-1.442 2.729-2.755 2.729s-2.419-1.155-2.754-2.73H1.939a1 1 0 01-1-1z" fill="#84D52C"/><path fill-rule="evenodd" clip-rule="evenodd" d="M10.019 3.726h13.858a1 1 0 110 2H9.98c-.358 1.527-1.447 2.637-2.734 2.637S4.87 7.253 4.513 5.726h-2.39a1 1 0 010-2h2.35C4.784 2.106 5.908.905 7.246.905c1.339 0 2.462 1.2 2.773 2.821zM2.122 12.25a1 1 0 100 2h11.524c.46 1.26 1.443 2.13 2.583 2.13 1.14 0 2.125-.87 2.584-2.13h5.064a1 1 0 100-2h-4.806c-.154-1.87-1.367-3.328-2.842-3.328-1.474 0-2.688 1.457-2.841 3.328H2.122zM.94 21.175a1 1 0 011-1h7.453c.335-1.573 1.441-2.729 2.754-2.729s2.42 1.155 2.754 2.73h9.161a1 1 0 010 2h-9.16c-.336 1.574-1.442 2.729-2.755 2.729s-2.419-1.155-2.754-2.73H1.939a1 1 0 01-1-1z" fill="url(#fpaint0_linear_102_757)" fill-opacity=".2"/><defs><linearGradient id="fpaint0_linear_102_757" x1="25.061" y1=".905" x2="1.068" y2="2.356" gradientUnits="userSpaceOnUse"><stop stop-color="#6BAB2B"/><stop offset="1" stop-color="#84D52C" stop-opacity="0"/></linearGradient></defs></svg><svg fill="none" viewBox="0 0 26 24" id="thc-high" xmlns="http://www.w3.org/2000/svg"><path d="M17.133 22.577l2.778-2.75 1.457.87 3.385-4.502m-2.2-.098l2.524.112m-.09 2.272l-.39-2.752" stroke="#7ACB22" stroke-width="1.069"/><path d="M5.267 16.197H3.005V10.26H1V8.133h6.26v2.128H5.267v5.936z" fill="#84D52C"/><path d="M5.267 16.197H3.005V10.26H1V8.133h6.26v2.128H5.267v5.936z" fill="url(#gpaint0_linear_107_1325)" fill-opacity=".2"/><path d="M15.265 16.197h-2.263v-3.083h-2.676v3.083H8.064V8.133h2.262v2.853h2.676V8.133h2.263v8.064z" fill="#84D52C"/><path d="M15.265 16.197h-2.263v-3.083h-2.676v3.083H8.064V8.133h2.262v2.853h2.676V8.133h2.263v8.064z" fill="url(#gpaint1_linear_107_1325)" fill-opacity=".2"/><path d="M20.18 16.342c-1.179 0-2.16-.387-2.945-1.16-.776-.783-1.164-1.786-1.164-3.011 0-1.233.388-2.237 1.164-3.01C18.012 8.387 18.994 8 20.181 8c.896 0 1.616.226 2.161.677a4.131 4.131 0 011.232 1.668l-1.948.98a1.694 1.694 0 00-.55-.822 1.333 1.333 0 00-.895-.351c-.538 0-.975.193-1.31.58-.336.387-.504.867-.504 1.439 0 .572.168 1.052.504 1.439.335.386.772.58 1.31.58.328 0 .627-.113.896-.339.269-.234.451-.512.549-.834l1.948.967c-.12.298-.269.576-.448.834-.179.25-.403.496-.672.738a3.029 3.029 0 01-.996.58 3.81 3.81 0 01-1.277.206z" fill="#84D52C"/><path d="M20.18 16.342c-1.179 0-2.16-.387-2.945-1.16-.776-.783-1.164-1.786-1.164-3.011 0-1.233.388-2.237 1.164-3.01C18.012 8.387 18.994 8 20.181 8c.896 0 1.616.226 2.161.677a4.131 4.131 0 011.232 1.668l-1.948.98a1.694 1.694 0 00-.55-.822 1.333 1.333 0 00-.895-.351c-.538 0-.975.193-1.31.58-.336.387-.504.867-.504 1.439 0 .572.168 1.052.504 1.439.335.386.772.58 1.31.58.328 0 .627-.113.896-.339.269-.234.451-.512.549-.834l1.948.967c-.12.298-.269.576-.448.834-.179.25-.403.496-.672.738a3.029 3.029 0 01-.996.58 3.81 3.81 0 01-1.277.206z" fill="url(#gpaint2_linear_107_1325)" fill-opacity=".2"/><defs><linearGradient id="gpaint0_linear_107_1325" x1="23.574" y1="8" x2="1.621" y2="11.576" gradientUnits="userSpaceOnUse"><stop stop-color="#6BAB2B"/><stop offset="1" stop-color="#84D52C" stop-opacity="0"/></linearGradient><linearGradient id="gpaint1_linear_107_1325" x1="23.574" y1="8" x2="1.621" y2="11.576" gradientUnits="userSpaceOnUse"><stop stop-color="#6BAB2B"/><stop offset="1" stop-color="#84D52C" stop-opacity="0"/></linearGradient><linearGradient id="gpaint2_linear_107_1325" x1="23.574" y1="8" x2="1.621" y2="11.576" gradientUnits="userSpaceOnUse"><stop stop-color="#6BAB2B"/><stop offset="1" stop-color="#84D52C" stop-opacity="0"/></linearGradient></defs></svg><svg fill="none" viewBox="0 0 28 24" id="thc-low" xmlns="http://www.w3.org/2000/svg"><path d="M4.536 16.197H2.131V10.26H0V8.133h6.656v2.128h-2.12v5.936z" fill="#84D52C"/><path d="M4.536 16.197H2.131V10.26H0V8.133h6.656v2.128h-2.12v5.936z" fill="url(#hpaint0_linear_107_1327)" fill-opacity=".2"/><path d="M15.166 16.197H12.76v-3.083H9.915v3.083H7.51V8.133h2.405v2.853h2.846V8.133h2.405v8.064z" fill="#84D52C"/><path d="M15.166 16.197H12.76v-3.083H9.915v3.083H7.51V8.133h2.405v2.853h2.846V8.133h2.405v8.064z" fill="url(#hpaint1_linear_107_1327)" fill-opacity=".2"/><path d="M20.392 16.342c-1.254 0-2.298-.387-3.131-1.16-.826-.783-1.238-1.786-1.238-3.011 0-1.233.412-2.237 1.238-3.01C18.086 8.387 19.13 8 20.392 8c.953 0 1.719.226 2.298.677A4.159 4.159 0 0124 10.345l-2.072.98a1.691 1.691 0 00-.583-.822 1.468 1.468 0 00-.953-.351c-.571 0-1.035.193-1.393.58-.357.387-.535.867-.535 1.439 0 .572.178 1.052.535 1.439.358.386.822.58 1.393.58a1.5 1.5 0 00.953-.339 1.76 1.76 0 00.583-.834l2.072.967a4.108 4.108 0 01-.476.834c-.19.25-.429.496-.715.738a3.27 3.27 0 01-1.06.58 4.284 4.284 0 01-1.357.206z" fill="#84D52C"/><path d="M20.392 16.342c-1.254 0-2.298-.387-3.131-1.16-.826-.783-1.238-1.786-1.238-3.011 0-1.233.412-2.237 1.238-3.01C18.086 8.387 19.13 8 20.392 8c.953 0 1.719.226 2.298.677A4.159 4.159 0 0124 10.345l-2.072.98a1.691 1.691 0 00-.583-.822 1.468 1.468 0 00-.953-.351c-.571 0-1.035.193-1.393.58-.357.387-.535.867-.535 1.439 0 .572.178 1.052.535 1.439.358.386.822.58 1.393.58a1.5 1.5 0 00.953-.339 1.76 1.76 0 00.583-.834l2.072.967a4.108 4.108 0 01-.476.834c-.19.25-.429.496-.715.738a3.27 3.27 0 01-1.06.58 4.284 4.284 0 01-1.357.206z" fill="url(#hpaint2_linear_107_1327)" fill-opacity=".2"/><path d="M20.597 15l2.555 2.57-.855 1.311 4.21 3.151m.137-1.998l-.157 2.293m-2.157-.119l2.623-.31" stroke="#FF6D59" stroke-width="1.069"/><defs><linearGradient id="hpaint0_linear_107_1327" x1="24" y1="8" x2=".738" y2="12.028" gradientUnits="userSpaceOnUse"><stop stop-color="#6BAB2B"/><stop offset="1" stop-color="#84D52C" stop-opacity="0"/></linearGradient><linearGradient id="hpaint1_linear_107_1327" x1="24" y1="8" x2=".738" y2="12.028" gradientUnits="userSpaceOnUse"><stop stop-color="#6BAB2B"/><stop offset="1" stop-color="#84D52C" stop-opacity="0"/></linearGradient><linearGradient id="hpaint2_linear_107_1327" x1="24" y1="8" x2=".738" y2="12.028" gradientUnits="userSpaceOnUse"><stop stop-color="#6BAB2B"/><stop offset="1" stop-color="#84D52C" stop-opacity="0"/></linearGradient></defs></svg></svg>